<svg xmlns="http://www.w3.org/2000/svg" width="46" height="53" viewBox="0 0 46 53">
  <defs>
    <style>
      .cls-1 {
        fill: #f0f0f0;
      }

      .cls-2 {
        fill: #b0b7bd;
      }

      .cls-3 {
        fill: #cad1d8;
      }

      .cls-4 {
        fill: #f15642;
      }

      .cls-5 {
        fill: #fff;
      }
    </style>
  </defs>
  <g id="avi" transform="translate(-32)">
    <path id="Path_361" data-name="Path 361" class="cls-1" d="M99.281,0A3.307,3.307,0,0,0,96,3.312V49.687A3.307,3.307,0,0,0,99.281,53h32.812a3.307,3.307,0,0,0,3.281-3.312V13.25L122.25,0Z" transform="translate(-57.375)"/>
    <path id="Path_362" data-name="Path 362" class="cls-2" d="M355.313,13.25h9.938L352,0V9.937A3.322,3.322,0,0,0,355.313,13.25Z" transform="translate(-287.25)"/>
    <path id="Path_363" data-name="Path 363" class="cls-3" d="M393.938,137.938,384,128h9.938Z" transform="translate(-315.938 -114.75)"/>
    <path id="Path_364" data-name="Path 364" class="cls-4" d="M71.375,258.219a1.653,1.653,0,0,1-1.641,1.656H33.641A1.653,1.653,0,0,1,32,258.219V241.656A1.653,1.653,0,0,1,33.641,240H69.734a1.653,1.653,0,0,1,1.641,1.656Z" transform="translate(0 -215.156)"/>
    <path id="Path_368" data-name="Path 368" class="cls-3" d="M127.112,417.656H96v1.656h31.112a1.652,1.652,0,0,0,1.638-1.656V416A1.652,1.652,0,0,1,127.112,417.656Z" transform="translate(-57.375 -372.938)"/>
    <g id="Group_1141" data-name="Group 1141" transform="translate(40.618 29.966)">
      <path id="Path_529" data-name="Path 529" class="cls-5" d="M116.833,304.3a.964.964,0,0,1-.437-1.311l3.918-7.656a.923.923,0,0,1,1.692,0l3.85,7.656c.56,1.064-1.093,1.91-1.584.845l-.6-1.2h-5.036l-.586,1.2A1.025,1.025,0,0,1,116.833,304.3Zm5.869-3.467-1.543-3.372-1.678,3.372Z" transform="translate(-116.287 -294.783)"/>
      <path id="Path_530" data-name="Path 530" class="cls-5" d="M210.538,303.681l-3.6-7.547a.937.937,0,0,1,1.678-.833l1.215,2.743,1.569,3.6,1.542-3.6,1.215-2.743a.914.914,0,0,1,1.666.751l-3.481,7.629C212.025,304.541,211.055,304.746,210.538,303.681Z" transform="translate(-197.167 -294.774)"/>
      <path id="Path_531" data-name="Path 531" class="cls-5" d="M306.88,296a.9.9,0,0,1,1.8,0v7.793a.9.9,0,0,1-1.8,0Z" transform="translate(-286.545 -295.102)"/>
    </g>
  </g>
</svg>
