<svg xmlns="http://www.w3.org/2000/svg" width="46" height="53" viewBox="0 0 46 53">
  <defs>
    <style>
      .cls-1 {
        fill: #f0f0f0;
      }

      .cls-2 {
        fill: #b0b7bd;
      }

      .cls-3 {
        fill: #cad1d8;
      }

      .cls-4 {
        fill: #3f95e0;
      }

      .cls-5 {
        fill: #fff;
      }
    </style>
  </defs>
  <g id="doc" transform="translate(0)">
    <path id="Path_255" data-name="Path 255" class="cls-1" d="M99.285,0A3.309,3.309,0,0,0,96,3.313V49.688A3.309,3.309,0,0,0,99.285,53H132.14a3.309,3.309,0,0,0,3.286-3.312V13.25L122.284,0Z" transform="translate(-89.426)"/>
    <path id="Path_256" data-name="Path 256" class="cls-2" d="M355.287,13.148h9.861L352,0V9.861A3.3,3.3,0,0,0,355.287,13.148Z" transform="translate(-319.148)"/>
    <path id="Path_257" data-name="Path 257" class="cls-3" d="M393.861,137.861,384,128h9.861Z" transform="translate(-347.861 -114.726)"/>
    <path id="Path_258" data-name="Path 258" class="cls-4" d="M71.426,258.079a1.648,1.648,0,0,1-1.643,1.643H33.643A1.648,1.648,0,0,1,32,258.079V241.644A1.648,1.648,0,0,1,33.643,240h36.14a1.648,1.648,0,0,1,1.643,1.644Z" transform="translate(-32 -215.042)"/>
    <g id="doc-2" data-name="doc" transform="translate(5.315 30.306)">
      <path id="Path_259" data-name="Path 259" class="cls-5" d="M84.651,304.565a.824.824,0,0,1-.907-.815v-7.463a.893.893,0,0,1,.907-.815H87.66c6.005,0,5.872,9.094.117,9.094Zm.828-7.491v5.887H87.66c3.548,0,3.7-5.887,0-5.887Z" transform="translate(-83.744 -295.143)"/>
      <path id="Path_260" data-name="Path 260" class="cls-5" d="M184.715,301.826a4.589,4.589,0,0,1-4.955-4.732,4.829,4.829,0,0,1,9.659,0A4.583,4.583,0,0,1,184.715,301.826Zm-.145-7.844A3.115,3.115,0,1,0,187.7,297.1,3.008,3.008,0,0,0,184.571,293.981Z" transform="translate(-169.897 -292.272)"/>
      <path id="Path_261" data-name="Path 261" class="cls-5" d="M288.848,297.885a4.423,4.423,0,0,1,4.613-4.717,4.294,4.294,0,0,1,3.009,1.17.852.852,0,1,1-1.17,1.234,2.268,2.268,0,0,0-1.839-.721,2.839,2.839,0,0,0-2.995,3.036,2.89,2.89,0,0,0,2.995,3.128,3.069,3.069,0,0,0,2.051-.841.882.882,0,0,1,1.208.158.907.907,0,0,1-.145,1.234,4.3,4.3,0,0,1-3.116,1.027C290.281,302.592,288.848,300.421,288.848,297.885Z" transform="translate(-267.78 -293.076)"/>
    </g>
    <path id="Path_262" data-name="Path 262" class="cls-3" d="M127.209,417.643H96v1.644h31.209a1.648,1.648,0,0,0,1.643-1.644V416A1.648,1.648,0,0,1,127.209,417.643Z" transform="translate(-89.426 -372.861)"/>
  </g>
</svg>
