<svg xmlns="http://www.w3.org/2000/svg" width="46" height="53" viewBox="0 0 46 53">
  <defs>
    <style>
      .cls-1 {
        fill: #f0f0f0;
      }

      .cls-2 {
        fill: #b0b7bd;
      }

      .cls-3 {
        fill: #cad1d8;
      }

      .cls-4 {
        fill: #a066aa;
      }

      .cls-5 {
        fill: #fff;
      }
    </style>
  </defs>
  <g id="gif" transform="translate(-32)">
    <path id="Path_361" data-name="Path 361" class="cls-1" d="M99.281,0A3.307,3.307,0,0,0,96,3.313V49.687A3.307,3.307,0,0,0,99.281,53h32.812a3.307,3.307,0,0,0,3.281-3.313V13.25L122.25,0Z" transform="translate(-57.375)"/>
    <path id="Path_362" data-name="Path 362" class="cls-2" d="M355.313,13.25h9.938L352,0V9.938A3.322,3.322,0,0,0,355.313,13.25Z" transform="translate(-287.25)"/>
    <path id="Path_363" data-name="Path 363" class="cls-3" d="M393.938,137.938,384,128h9.938Z" transform="translate(-315.938 -114.75)"/>
    <path id="Path_364" data-name="Path 364" class="cls-4" d="M71.375,258.219a1.653,1.653,0,0,1-1.641,1.656H33.641A1.653,1.653,0,0,1,32,258.219V241.656A1.653,1.653,0,0,1,33.641,240H69.734a1.653,1.653,0,0,1,1.641,1.656Z" transform="translate(0 -215.156)"/>
    <path id="Path_368" data-name="Path 368" class="cls-3" d="M127.112,417.656H96v1.656h31.112a1.652,1.652,0,0,0,1.638-1.656V416A1.652,1.652,0,0,1,127.112,417.656Z" transform="translate(-57.375 -372.938)"/>
    <g id="Group_1142" data-name="Group 1142" transform="translate(40.382 29.72)">
      <path id="Path_537" data-name="Path 537" class="cls-5" d="M130.975,302.12a5.358,5.358,0,0,1-3.473,1.187c-2.966,0-5.069-1.7-5.069-5.055a5.033,5.033,0,0,1,5.195-5.068,4.623,4.623,0,0,1,3.219,1.243.915.915,0,0,1-1.227,1.356,2.975,2.975,0,0,0-1.992-.89,3.364,3.364,0,0,0-3.358,3.358,3.124,3.124,0,0,0,3.233,3.36,3.592,3.592,0,0,0,2.117-.636v-1.734H127.5a.863.863,0,1,1,0-1.725h2.823a.967.967,0,0,1,1,.835v3.007A1.14,1.14,0,0,1,130.975,302.12Z" transform="translate(-122.432 -293.184)"/>
      <path id="Path_538" data-name="Path 538" class="cls-5" d="M224.944,296.02a.934.934,0,0,1,1.865,0v8.059a.933.933,0,0,1-1.865,0Z" transform="translate(-213.631 -294.92)"/>
      <path id="Path_539" data-name="Path 539" class="cls-5" d="M266.217,297.292v2.244h3.6a1.092,1.092,0,0,1,1.017,1,.98.98,0,0,1-1.017.846h-3.6v2.965a.839.839,0,0,1-.848.876.9.9,0,0,1-1-.876v-8.018a.891.891,0,0,1,1-.876h4.956a.88.88,0,0,1,.989.876.974.974,0,0,1-.989.959h-4.109Z" transform="translate(-248.704 -295.205)"/>
    </g>
  </g>
</svg>
