<svg xmlns="http://www.w3.org/2000/svg" width="46" height="53" viewBox="0 0 46 53">
  <defs>
    <style>
      .cls-1 {
        fill: #f0f0f0;
      }

      .cls-2 {
        fill: #b0b7bd;
      }

      .cls-3 {
        fill: #cad1d8;
      }

      .cls-4 {
        fill: #6b727b;
      }

      .cls-5 {
        fill: #fff;
      }
    </style>
  </defs>
  <g id="jpg" transform="translate(-32.132)">
    <path id="Path_361" data-name="Path 361" class="cls-1" d="M99.291,0A3.311,3.311,0,0,0,96,3.313V49.687A3.311,3.311,0,0,0,99.291,53H132.2a3.311,3.311,0,0,0,3.291-3.313V13.25L122.324,0Z" transform="translate(-57.354)"/>
    <path id="Path_362" data-name="Path 362" class="cls-2" d="M355.322,13.25h9.966L352,0V9.938A3.327,3.327,0,0,0,355.322,13.25Z" transform="translate(-287.155)"/>
    <path id="Path_363" data-name="Path 363" class="cls-3" d="M393.966,137.938,384,128h9.966Z" transform="translate(-315.833 -114.75)"/>
    <path id="Path_364" data-name="Path 364" class="cls-4" d="M71.486,258.219a1.656,1.656,0,0,1-1.645,1.656h-36.2A1.656,1.656,0,0,1,32,258.219V241.656A1.656,1.656,0,0,1,33.645,240h36.2a1.656,1.656,0,0,1,1.645,1.656Z" transform="translate(0.132 -215.156)"/>
    <path id="Path_368" data-name="Path 368" class="cls-3" d="M127.2,417.656H96v1.656h31.2a1.654,1.654,0,0,0,1.642-1.656V416A1.654,1.654,0,0,1,127.2,417.656Z" transform="translate(-57.354 -372.938)"/>
    <g id="Group_1150" data-name="Group 1150" transform="translate(38.987 29.983)">
      <path id="Path_545" data-name="Path 545" class="cls-5" d="M102.02,295.925a.878.878,0,0,1,1.754,0v5.244c0,2.086-1,3.348-3.293,3.348a3.334,3.334,0,0,1-2.894-1.368c-.678-.81.6-1.978,1.289-1.129a1.976,1.976,0,0,0,1.739.824c.742-.027,1.395-.36,1.408-1.674v-5.244Z" transform="translate(-97.394 -294.892)"/>
      <path id="Path_546" data-name="Path 546" class="cls-5" d="M181.344,295.237a.914.914,0,0,1,.9-.917h3.067a3.32,3.32,0,0,1,0,6.639H183.1v1.754a.834.834,0,0,1-.85.915.9.9,0,0,1-.9-.915v-7.476Zm1.754.756V299.3h2.217a1.655,1.655,0,0,0,0-3.308Z" transform="translate(-172.631 -294.204)"/>
      <path id="Path_547" data-name="Path 547" class="cls-5" d="M273.2,301.6a5.03,5.03,0,0,1-3.266,1.116c-2.79,0-4.768-1.593-4.768-4.754a4.733,4.733,0,0,1,4.885-4.764,4.346,4.346,0,0,1,3.027,1.167.861.861,0,0,1-1.154,1.275,2.806,2.806,0,0,0-1.873-.837,3.164,3.164,0,0,0-3.158,3.158,2.939,2.939,0,0,0,3.041,3.162,3.39,3.39,0,0,0,1.991-.6V298.9h-1.991a.811.811,0,1,1,0-1.621h2.655a.908.908,0,0,1,.941.784v2.828A1.069,1.069,0,0,1,273.2,301.6Z" transform="translate(-247.755 -293.2)"/>
    </g>
  </g>
</svg>
