<svg xmlns="http://www.w3.org/2000/svg" width="46" height="53" viewBox="0 0 46 53">
  <defs>
    <style>
      .cls-1 {
        fill: #f0f0f0;
      }

      .cls-2 {
        fill: #b0b7bd;
      }

      .cls-3 {
        fill: #cad1d8;
      }

      .cls-4 {
        fill: #50bee8;
      }

      .cls-5 {
        fill: #fff;
      }
    </style>
  </defs>
  <g id="mov" transform="translate(-32)">
    <path id="Path_361" data-name="Path 361" class="cls-1" d="M99.281,0A3.307,3.307,0,0,0,96,3.313V49.687A3.307,3.307,0,0,0,99.281,53h32.813a3.307,3.307,0,0,0,3.281-3.313V13.25L122.25,0Z" transform="translate(-57.375)"/>
    <path id="Path_362" data-name="Path 362" class="cls-2" d="M355.313,13.25h9.938L352,0V9.938A3.322,3.322,0,0,0,355.313,13.25Z" transform="translate(-287.25)"/>
    <path id="Path_363" data-name="Path 363" class="cls-3" d="M393.938,137.938,384,128h9.938Z" transform="translate(-315.937 -114.75)"/>
    <path id="Path_364" data-name="Path 364" class="cls-4" d="M71.375,258.219a1.653,1.653,0,0,1-1.641,1.656H33.641A1.653,1.653,0,0,1,32,258.219V241.656A1.653,1.653,0,0,1,33.641,240H69.734a1.653,1.653,0,0,1,1.641,1.656Z" transform="translate(0 -215.156)"/>
    <path id="Path_368" data-name="Path 368" class="cls-3" d="M127.113,417.656H96v1.656h31.113a1.652,1.652,0,0,0,1.638-1.656V416A1.652,1.652,0,0,1,127.113,417.656Z" transform="translate(-57.375 -372.938)"/>
    <g id="Group_1151" data-name="Group 1151" transform="translate(36.616 29.857)">
      <path id="Path_553" data-name="Path 553" class="cls-5" d="M81.808,297.828V302.8a.928.928,0,0,1-.968.928.835.835,0,0,1-.807-.928v-7.568a.9.9,0,0,1,.807-.93,1.116,1.116,0,0,1,.847.486l2.956,3.992,3.065-4.141a.873.873,0,0,1,1.533.594V302.8a.834.834,0,0,1-.805.928.845.845,0,0,1-.861-.928v-4.974l-2.233,2.823a.881.881,0,0,1-1.532,0Z" transform="translate(-80.032 -294.091)"/>
      <path id="Path_554" data-name="Path 554" class="cls-5" d="M190.925,302.046a4.7,4.7,0,0,1-5.069-4.841,4.941,4.941,0,0,1,9.882,0A4.688,4.688,0,0,1,190.925,302.046Zm-.148-8.025a3.187,3.187,0,1,0,3.2,3.186A3.077,3.077,0,0,0,190.777,294.021Z" transform="translate(-174.735 -292.272)"/>
      <path id="Path_555" data-name="Path 555" class="cls-5" d="M292.546,303.532,289,296.1a.923.923,0,0,1,1.653-.82l1.2,2.7,1.545,3.549,1.518-3.549,1.2-2.7a.9.9,0,0,1,1.641.74l-3.428,7.516C294.01,304.38,293.055,304.58,292.546,303.532Z" transform="translate(-266.943 -294.497)"/>
    </g>
  </g>
</svg>
