<svg xmlns="http://www.w3.org/2000/svg" width="46" height="53" viewBox="0 0 46 53">
  <defs>
    <style>
      .cls-1 {
        fill: #f0f0f0;
      }

      .cls-2 {
        fill: #b0b7bd;
      }

      .cls-3 {
        fill: #cad1d8;
      }

      .cls-4 {
        fill: #50bee8;
      }

      .cls-5 {
        fill: #fff;
      }
    </style>
  </defs>
  <g id="mp3" transform="translate(-32)">
    <path id="Path_361" data-name="Path 361" class="cls-1" d="M99.281,0A3.307,3.307,0,0,0,96,3.313V49.687A3.307,3.307,0,0,0,99.281,53h32.813a3.307,3.307,0,0,0,3.281-3.313V13.25L122.25,0Z" transform="translate(-57.375)"/>
    <path id="Path_362" data-name="Path 362" class="cls-2" d="M355.313,13.25h9.938L352,0V9.938A3.322,3.322,0,0,0,355.313,13.25Z" transform="translate(-287.25)"/>
    <path id="Path_363" data-name="Path 363" class="cls-3" d="M393.938,137.938,384,128h9.938Z" transform="translate(-315.937 -114.75)"/>
    <path id="Path_364" data-name="Path 364" class="cls-4" d="M71.375,258.219a1.653,1.653,0,0,1-1.641,1.656H33.641A1.653,1.653,0,0,1,32,258.219V241.656A1.653,1.653,0,0,1,33.641,240H69.734a1.653,1.653,0,0,1,1.641,1.656Z" transform="translate(0 -215.156)"/>
    <path id="Path_368" data-name="Path 368" class="cls-3" d="M127.113,417.656H96v1.656h31.113a1.652,1.652,0,0,0,1.638-1.656V416A1.652,1.652,0,0,1,127.113,417.656Z" transform="translate(-57.375 -372.938)"/>
    <g id="Group_1152" data-name="Group 1152" transform="translate(38.241 29.982)">
      <path id="Path_561" data-name="Path 561" class="cls-5" d="M102.11,297.907v5.066a.945.945,0,0,1-.986.945.85.85,0,0,1-.82-.945v-7.708a.912.912,0,0,1,.82-.945,1.133,1.133,0,0,1,.863.493L105,298.879l3.119-4.217a.889.889,0,0,1,1.561.6v7.708a.852.852,0,0,1-.822.945.862.862,0,0,1-.877-.945v-5.066l-2.272,2.876a.9.9,0,0,1-1.56,0Z" transform="translate(-100.304 -294.32)"/>
      <path id="Path_562" data-name="Path 562" class="cls-5" d="M210.288,295.265a.942.942,0,0,1,.931-.945h3.162a3.423,3.423,0,0,1,0,6.845H212.1v1.808a.861.861,0,0,1-.877.945.925.925,0,0,1-.931-.945Zm1.806.781v3.409h2.286a1.705,1.705,0,0,0,0-3.409Z" transform="translate(-198.519 -294.32)"/>
      <path id="Path_563" data-name="Path 563" class="cls-5" d="M292.783,297.2h-2.34a.855.855,0,0,1,0-1.71h4.189a.9.9,0,0,1,.6,1.575l-2.272,2.121a2.7,2.7,0,0,1,2.984,2.655c0,1.683-1.192,3.121-3.7,3.121a3.245,3.245,0,0,1-2.806-1.438.883.883,0,1,1,1.491-.945,1.906,1.906,0,0,0,1.546.7c.836,0,1.657-.356,1.657-1.438,0-1.423-1.739-1.2-2.683-1.108a.888.888,0,0,1-.82-1.546Z" transform="translate(-269.054 -295.363)"/>
    </g>
  </g>
</svg>
