<svg xmlns="http://www.w3.org/2000/svg" width="46" height="53" viewBox="0 0 46 53">
  <defs>
    <style>
      .cls-1 {
        fill: #f0f0f0;
      }

      .cls-2 {
        fill: #b0b7bd;
      }

      .cls-3 {
        fill: #cad1d8;
      }

      .cls-4 {
        fill: #f7b84e;
      }

      .cls-5 {
        fill: #fff;
      }
    </style>
  </defs>
  <g id="mpg" transform="translate(-32)">
    <path id="Path_361" data-name="Path 361" class="cls-1" d="M99.281,0A3.307,3.307,0,0,0,96,3.313V49.687A3.307,3.307,0,0,0,99.281,53h32.812a3.307,3.307,0,0,0,3.281-3.313V13.25L122.25,0Z" transform="translate(-57.375)"/>
    <path id="Path_362" data-name="Path 362" class="cls-2" d="M355.313,13.25h9.938L352,0V9.938A3.322,3.322,0,0,0,355.313,13.25Z" transform="translate(-287.25)"/>
    <path id="Path_363" data-name="Path 363" class="cls-3" d="M393.938,137.938,384,128h9.938Z" transform="translate(-315.938 -114.75)"/>
    <path id="Path_364" data-name="Path 364" class="cls-4" d="M71.375,258.219a1.653,1.653,0,0,1-1.641,1.656H33.641A1.653,1.653,0,0,1,32,258.219V241.656A1.653,1.653,0,0,1,33.641,240H69.734a1.653,1.653,0,0,1,1.641,1.656Z" transform="translate(0 -215.156)"/>
    <path id="Path_368" data-name="Path 368" class="cls-3" d="M127.112,417.656H96v1.656h31.112a1.652,1.652,0,0,0,1.638-1.656V416A1.652,1.652,0,0,1,127.112,417.656Z" transform="translate(-57.375 -372.938)"/>
    <g id="Group_1146" data-name="Group 1146" transform="translate(38.625 30.414)">
      <path id="Path_569" data-name="Path 569" class="cls-5" d="M88.135,297.5V302a.84.84,0,0,1-.877.841.756.756,0,0,1-.73-.841v-6.857a.812.812,0,0,1,.73-.842,1,1,0,0,1,.768.44l2.681,3.617,2.776-3.752a.791.791,0,0,1,1.389.538V302a.758.758,0,0,1-.733.841.766.766,0,0,1-.78-.841V297.5l-2.022,2.558a.8.8,0,0,1-1.388,0Z" transform="translate(-86.528 -294.197)"/>
      <path id="Path_570" data-name="Path 570" class="cls-5" d="M196.5,295.146a.84.84,0,0,1,.829-.842h2.814a3.046,3.046,0,0,1,0,6.091H198.1V302a.765.765,0,0,1-.78.841A.822.822,0,0,1,196.5,302Zm1.609.693v3.033h2.034a1.518,1.518,0,0,0,0-3.033Z" transform="translate(-186.026 -294.197)"/>
      <path id="Path_571" data-name="Path 571" class="cls-5" d="M287.69,300.894a4.623,4.623,0,0,1-3,1.024,4.017,4.017,0,0,1-4.374-4.362,4.342,4.342,0,0,1,4.482-4.372,3.989,3.989,0,0,1,2.777,1.072.79.79,0,0,1-1.059,1.17,2.567,2.567,0,0,0-1.718-.768,2.9,2.9,0,0,0-2.9,2.9,2.7,2.7,0,0,0,2.789,2.9,3.1,3.1,0,0,0,1.827-.548v-1.5h-1.827a.745.745,0,1,1,0-1.488h2.436a.834.834,0,0,1,.864.721v2.594A.977.977,0,0,1,287.69,300.894Z" transform="translate(-261.868 -293.184)"/>
    </g>
  </g>
</svg>
