<svg xmlns="http://www.w3.org/2000/svg" width="46" height="53" viewBox="0 0 46 53">
  <defs>
    <style>
      .cls-1 {
        fill: #f0f0f0;
      }

      .cls-2 {
        fill: #b0b7bd;
      }

      .cls-3 {
        fill: #cad1d8;
      }

      .cls-4 {
        fill: #bd5450;
      }

      .cls-5 {
        fill: #fff;
      }
    </style>
  </defs>
  <g id="pdf" transform="translate(0)">
    <path id="Path_255" data-name="Path 255" class="cls-1" d="M99.285,0A3.309,3.309,0,0,0,96,3.313V49.688A3.309,3.309,0,0,0,99.285,53H132.14a3.309,3.309,0,0,0,3.286-3.312V13.25L122.284,0Z" transform="translate(-89.426)"/>
    <path id="Path_256" data-name="Path 256" class="cls-2" d="M355.287,13.148h9.861L352,0V9.861A3.3,3.3,0,0,0,355.287,13.148Z" transform="translate(-319.148)"/>
    <path id="Path_257" data-name="Path 257" class="cls-3" d="M393.861,137.861,384,128h9.861Z" transform="translate(-347.861 -114.726)"/>
    <path id="Path_258" data-name="Path 258" class="cls-4" d="M71.426,258.079a1.648,1.648,0,0,1-1.643,1.643H33.643A1.648,1.648,0,0,1,32,258.079V241.644A1.648,1.648,0,0,1,33.643,240h36.14a1.648,1.648,0,0,1,1.643,1.644Z" transform="translate(-32 -215)"/>
    <path id="Path_262" data-name="Path 262" class="cls-3" d="M127.209,417.643H96v1.644h31.209a1.648,1.648,0,0,0,1.643-1.644V416A1.648,1.648,0,0,1,127.209,417.643Z" transform="translate(-89.426 -372.861)"/>
    <g id="pdf-2" data-name="pdf" transform="translate(5.756 30.19)">
      <path id="Path_251" data-name="Path 251" class="cls-5" d="M101.744,295.284a.961.961,0,0,1,.948-.964h3.224a3.49,3.49,0,0,1,0,6.98h-2.331v1.843a.876.876,0,0,1-.894.962.941.941,0,0,1-.948-.962Zm1.842.794v3.478h2.331a1.74,1.74,0,0,0,0-3.478Z" transform="translate(-101.744 -294.32)"/>
      <path id="Path_252" data-name="Path 252" class="cls-5" d="M188.788,305.131a.874.874,0,0,1-.964-.864v-7.929a.95.95,0,0,1,.964-.866h3.2c6.379,0,6.239,9.659.126,9.659Zm.88-7.955v6.253h2.317c3.769,0,3.937-6.253,0-6.253Z" transform="translate(-178.432 -295.346)"/>
      <path id="Path_253" data-name="Path 253" class="cls-5" d="M288.962,297.273v2.219h3.56a1.079,1.079,0,0,1,1.006.99.97.97,0,0,1-1.006.838h-3.56v2.931a.827.827,0,0,1-.836.864.887.887,0,0,1-.99-.864v-7.929a.882.882,0,0,1,.99-.866h4.9a.871.871,0,0,1,.978.866.964.964,0,0,1-.978.95h-4.064Z" transform="translate(-266.908 -295.332)"/>
    </g>
  </g>
</svg>
