<svg xmlns="http://www.w3.org/2000/svg" width="46" height="53" viewBox="0 0 46 53">
  <defs>
    <style>
      .cls-1 {
        fill: #f0f0f0;
      }

      .cls-2 {
        fill: #b0b7bd;
      }

      .cls-3 {
        fill: #cad1d8;
      }

      .cls-4 {
        fill: #a066aa;
      }

      .cls-5 {
        fill: #fff;
      }
    </style>
  </defs>
  <g id="png" transform="translate(-31.72)">
    <path id="Path_361" data-name="Path 361" class="cls-1" d="M99.255,0A3.294,3.294,0,0,0,96,3.313V49.688A3.294,3.294,0,0,0,99.255,53H131.8a3.294,3.294,0,0,0,3.255-3.312V13.25L122.04,0Z" transform="translate(-57.34)"/>
    <path id="Path_362" data-name="Path 362" class="cls-2" d="M355.286,13.25h9.858L352,0V9.938A3.309,3.309,0,0,0,355.286,13.25Z" transform="translate(-287.424)"/>
    <path id="Path_363" data-name="Path 363" class="cls-3" d="M393.858,137.938,384,128h9.858Z" transform="translate(-316.138 -114.75)"/>
    <path id="Path_364" data-name="Path 364" class="cls-4" d="M71.06,258.219a1.647,1.647,0,0,1-1.627,1.656h-35.8A1.647,1.647,0,0,1,32,258.219V241.656A1.647,1.647,0,0,1,33.627,240h35.8a1.647,1.647,0,0,1,1.627,1.656Z" transform="translate(-0.28 -215.156)"/>
    <path id="Path_368" data-name="Path 368" class="cls-3" d="M126.863,417.656H96v1.656h30.863a1.645,1.645,0,0,0,1.624-1.656V416A1.645,1.645,0,0,1,126.863,417.656Z" transform="translate(-57.34 -372.937)"/>
    <g id="Group_1147" data-name="Group 1147" transform="translate(38.66 30.335)">
      <path id="Path_577" data-name="Path 577" class="cls-5" d="M92.816,295.155a.847.847,0,0,1,.836-.851H96.5a3.076,3.076,0,0,1,0,6.152H94.438v1.625a.771.771,0,0,1-.786.849.829.829,0,0,1-.836-.849Zm1.622.7v3.064h2.056a1.533,1.533,0,0,0,0-3.064Z" transform="translate(-92.816 -294.196)"/>
      <path id="Path_578" data-name="Path 578" class="cls-5" d="M178.962,295.278c0-.445.1-.874.739-.874.442,0,.542.111.873.429l4.072,5.095v-4.773a.866.866,0,0,1,.776-.851.937.937,0,0,1,.873.851v6.926a.822.822,0,0,1-.652.849,1.237,1.237,0,0,1-1-.429l-4.072-5.169v4.75a.764.764,0,0,1-.776.849.81.81,0,0,1-.837-.849v-6.8Z" transform="translate(-170.675 -294.196)"/>
      <path id="Path_579" data-name="Path 579" class="cls-5" d="M281.477,300.972a4.67,4.67,0,0,1-3.027,1.034,4.057,4.057,0,0,1-4.418-4.406,4.386,4.386,0,0,1,4.527-4.416,4.029,4.029,0,0,1,2.805,1.083.8.8,0,0,1-1.069,1.182,2.593,2.593,0,0,0-1.736-.776,2.932,2.932,0,0,0-2.927,2.927,2.722,2.722,0,0,0,2.818,2.928,3.131,3.131,0,0,0,1.845-.554v-1.511H278.45a.752.752,0,1,1,0-1.5h2.46a.843.843,0,0,1,.872.728v2.621A.993.993,0,0,1,281.477,300.972Z" transform="translate(-256.604 -293.184)"/>
    </g>
  </g>
</svg>
