<svg xmlns="http://www.w3.org/2000/svg" width="46" height="53" viewBox="0 0 46 53">
  <defs>
    <style>
      .cls-1 {
        fill: #f0f0f0;
      }

      .cls-2 {
        fill: #b0b7bd;
      }

      .cls-3 {
        fill: #cad1d8;
      }

      .cls-4 {
        fill: #6aa572;
      }

      .cls-5 {
        fill: #fff;
      }
    </style>
  </defs>
  <g id="xls" transform="translate(-32)">
    <path id="Path_369" data-name="Path 369" class="cls-1" d="M99.283,0A3.307,3.307,0,0,0,96,3.312V49.688A3.307,3.307,0,0,0,99.283,53h32.825a3.307,3.307,0,0,0,3.283-3.312V13.25L122.26,0Z" transform="translate(-57.39)"/>
    <path id="Path_370" data-name="Path 370" class="cls-2" d="M355.3,13.219h9.914L352,0V9.914A3.314,3.314,0,0,0,355.3,13.219Z" transform="translate(-287.219)"/>
    <path id="Path_371" data-name="Path 371" class="cls-3" d="M393.914,137.914,384,128h9.914Z" transform="translate(-315.914 -114.743)"/>
    <path id="Path_372" data-name="Path 372" class="cls-4" d="M71.39,258.176a1.652,1.652,0,0,1-1.641,1.652H33.641A1.652,1.652,0,0,1,32,258.176V241.652A1.652,1.652,0,0,1,33.641,240H69.749a1.652,1.652,0,0,1,1.641,1.652Z" transform="translate(0 -215.122)"/>
    <g id="xls-2" data-name="xls" transform="translate(39.471 30.181)">
      <path id="Path_373" data-name="Path 373" class="cls-5" d="M109.265,298.26l2.3-2.88c.687-.9,2.023.25,1.269,1.109-.792.939-1.624,1.956-2.417,3l2.7,3.356a.867.867,0,1,1-1.439.963l-2.432-3.118-2.391,3.186c-.674.963-2.168-.119-1.414-1.018l2.655-3.369c-.833-1.044-1.639-2.061-2.444-3a.855.855,0,1,1,1.322-1.081Z" transform="translate(-105.226 -294.668)"/>
      <path id="Path_374" data-name="Path 374" class="cls-5" d="M197.36,296.15a.824.824,0,0,1,.833-.806.806.806,0,0,1,.78.806v6.619h3.594a.872.872,0,1,1,0,1.73h-4.372a.8.8,0,0,1-.833-.8V296.15Z" transform="translate(-187.845 -294.937)"/>
      <path id="Path_375" data-name="Path 375" class="cls-5" d="M270.7,293.81c.3-2.565,4.174-3.026,6-1.624a.773.773,0,1,1-.846,1.294c-.978-.62-3.2-.91-3.475.461-.357,2.168,5.39.927,5.3,4.442-.093,3.356-4.954,3.434-6.778,1.928a.977.977,0,0,1-.185-1.3.78.78,0,0,1,1.176-.091c1.082.739,3.872,1.294,4.068-.583C275.786,296.388,270.29,297.562,270.7,293.81Z" transform="translate(-253.473 -291.407)"/>
    </g>
    <path id="Path_376" data-name="Path 376" class="cls-3" d="M127.142,417.652H96V419.3h31.142a1.651,1.651,0,0,0,1.639-1.652V416A1.651,1.651,0,0,1,127.142,417.652Z" transform="translate(-57.39 -372.914)"/>
  </g>
</svg>
