<svg width="85" height="15" viewBox="0 0 85 15" fill="none" xmlns="http://www.w3.org/2000/svg">
<path d="M1.559 12.5528C0.690627 11.697 0.158342 10.5579 0.059 9.3428C0.059 9.3378 0.059 9.3318 0.059 9.3268C0.02 8.9858 0.005 8.6998 0 8.3088L0.007 6.0998V1.7758C-0.00678535 1.68403 0.00763495 1.59023 0.0483509 1.50683C0.0890668 1.42344 0.154157 1.35438 0.235 1.3088L2.253 0.0338017C2.27663 0.0146671 2.30501 0.00230441 2.33512 -0.00196816C2.36522 -0.00624073 2.39592 -0.00226299 2.42394 0.00954093C2.45196 0.0213449 2.47626 0.0405324 2.49423 0.0650576C2.5122 0.0895829 2.52318 0.118526 2.526 0.148802V3.3228C2.53377 3.38806 2.56448 3.44843 2.61266 3.49313C2.66084 3.53783 2.72334 3.56394 2.789 3.5668H2.8H4.149H4.9C5.70037 3.52552 6.50102 3.6426 7.25606 3.91133C8.0111 4.18005 8.70568 4.59514 9.3 5.1328C9.80241 5.61341 10.2019 6.19113 10.4742 6.83088C10.7464 7.47062 10.8858 8.15903 10.8839 8.85431C10.8819 9.54958 10.7386 10.2372 10.4627 10.8754C10.1869 11.5136 9.78412 12.089 9.279 12.5668C8.2428 13.558 6.86193 14.1077 5.428 14.0998C3.98584 14.109 2.59728 13.5538 1.559 12.5528ZM2.546 6.2528V6.2578L2.539 8.5058C2.539 8.7058 2.55 8.8568 2.567 9.0318C2.567 9.0318 2.567 9.0388 2.567 9.0418C2.62229 9.67702 2.90242 10.2717 3.357 10.7188C3.90246 11.2394 4.62698 11.5307 5.381 11.5326C6.13503 11.5344 6.86098 11.2467 7.409 10.7288C7.67358 10.4779 7.88447 10.1759 8.0289 9.84105C8.17332 9.50623 8.24827 9.14558 8.2492 8.78094C8.25014 8.4163 8.17704 8.05527 8.03434 7.71972C7.89163 7.38416 7.68229 7.08107 7.419 6.8288C7.11055 6.54684 6.74951 6.32848 6.35656 6.18623C5.96361 6.04398 5.54647 5.98063 5.129 5.9998H2.825C2.75536 5.99973 2.68819 6.0256 2.63661 6.07238C2.58502 6.11916 2.55272 6.18349 2.546 6.2528ZM25.488 9.4528V8.3938C25.472 7.76391 25.588 7.13764 25.8285 6.55527C26.0691 5.9729 26.4289 5.44733 26.8847 5.01236C27.3406 4.57739 27.8825 4.24266 28.4755 4.02969C29.0685 3.81673 29.6996 3.73024 30.328 3.7758C30.9518 3.73357 31.5774 3.82298 32.1644 4.03823C32.7514 4.25348 33.2865 4.58975 33.7351 5.02523C34.1837 5.46071 34.5357 5.98565 34.7682 6.56598C35.0008 7.14631 35.1087 7.76906 35.085 8.3938V9.3298C35.085 9.37023 35.0769 9.41024 35.0611 9.44745C35.0453 9.48465 35.0221 9.51827 34.9929 9.54629C34.9638 9.57431 34.9293 9.59615 34.8915 9.6105C34.8537 9.62486 34.8134 9.63142 34.773 9.6298H28.189C28.1625 9.62646 28.1356 9.62946 28.1104 9.63854C28.0853 9.64762 28.0627 9.66254 28.0444 9.68206C28.0262 9.70157 28.0128 9.72514 28.0054 9.75082C27.9981 9.77651 27.9969 9.80357 28.002 9.8298C28.0336 10.1551 28.1292 10.4709 28.2832 10.7592C28.4372 11.0474 28.6467 11.3024 28.8995 11.5095C29.1523 11.7166 29.4435 11.8717 29.7565 11.966C30.0694 12.0603 30.3979 12.0918 30.723 12.0588C31.3814 12.0648 32.0209 11.8393 32.53 11.4218C32.5826 11.3782 32.6487 11.3544 32.717 11.3544C32.7853 11.3544 32.8514 11.3782 32.904 11.4218L34.317 12.3148C34.3519 12.3388 34.3807 12.3706 34.4013 12.4076C34.4219 12.4446 34.4337 12.4858 34.4357 12.5281C34.4378 12.5704 34.43 12.6126 34.413 12.6514C34.3961 12.6902 34.3704 12.7246 34.338 12.7518C33.3256 13.6027 32.0455 14.069 30.723 14.0688C27.732 14.0668 25.488 12.1158 25.488 9.4488V9.4528ZM28 7.8368C27.979 7.9768 28.1 8.0558 28.229 8.0558H32.342C32.3711 8.05936 32.4007 8.05605 32.4283 8.04613C32.456 8.03621 32.4809 8.01995 32.5011 7.99866C32.5213 7.97737 32.5363 7.95164 32.5448 7.92353C32.5533 7.89543 32.5551 7.86572 32.55 7.8368C32.546 7.55596 32.4852 7.27883 32.3713 7.02209C32.2574 6.76535 32.0927 6.53432 31.8872 6.34289C31.6817 6.15146 31.4395 6.0036 31.1753 5.90821C30.9112 5.81281 30.6304 5.77185 30.35 5.7878C30.0599 5.76186 29.7676 5.79484 29.4906 5.88478C29.2135 5.97472 28.9576 6.11976 28.738 6.31116C28.5185 6.50257 28.34 6.73639 28.2131 6.99857C28.0863 7.26075 28.0138 7.54588 28 7.8368ZM70.124 14.0618C70.0862 14.0636 70.0484 14.0576 70.013 14.0443C69.9776 14.031 69.9452 14.0107 69.9179 13.9845C69.8906 13.9583 69.8689 13.9268 69.8541 13.892C69.8393 13.8571 69.8318 13.8196 69.832 13.7818V7.8898C69.832 6.0238 70.596 4.7308 71.955 4.2218C73.264 3.66476 74.7354 3.62438 76.073 4.1088C76.8653 4.35812 77.5441 4.87905 77.99 5.5798C78.0005 5.60426 78.0179 5.62511 78.0401 5.63976C78.0624 5.65441 78.0884 5.66222 78.115 5.66222C78.1416 5.66222 78.1676 5.65441 78.1899 5.63976C78.2121 5.62511 78.2295 5.60426 78.24 5.5798C78.5935 5.06155 79.0721 4.64097 79.6316 4.35706C80.191 4.07316 80.813 3.93514 81.44 3.9558C83.69 3.9558 85 5.4188 85 7.8648V13.7568C85.0003 13.7946 84.9929 13.8321 84.9783 13.867C84.9636 13.9019 84.942 13.9335 84.9148 13.9598C84.8876 13.986 84.8553 14.0065 84.8199 14.0199C84.7845 14.0334 84.7468 14.0394 84.709 14.0378H82.734C82.6962 14.0394 82.6585 14.0334 82.6231 14.0199C82.5877 14.0065 82.5554 13.986 82.5282 13.9598C82.501 13.9335 82.4794 13.9019 82.4647 13.867C82.4501 13.8321 82.4427 13.7946 82.443 13.7568V7.9648C82.4827 7.71568 82.4637 7.46074 82.3877 7.22022C82.3116 6.9797 82.1806 6.76021 82.0049 6.57919C81.8292 6.39816 81.6137 6.26059 81.3756 6.17737C81.1375 6.09416 80.8832 6.0676 80.633 6.0998C80.2765 6.08735 79.9222 6.16101 79.6001 6.31454C79.2781 6.46807 78.9978 6.69695 78.783 6.9818C78.6212 7.13365 78.5245 7.34221 78.513 7.5638V13.7568C78.5133 13.7946 78.5059 13.8321 78.4913 13.867C78.4766 13.9019 78.455 13.9335 78.4278 13.9598C78.4006 13.986 78.3683 14.0065 78.3329 14.0199C78.2975 14.0334 78.2598 14.0394 78.222 14.0378H76.266C76.1905 14.0376 76.118 14.0083 76.0636 13.9559C76.0092 13.9036 75.9771 13.8322 75.974 13.7568V7.9648C76.0148 7.6417 75.9609 7.3137 75.8189 7.02063C75.6769 6.72755 75.4529 6.48201 75.174 6.3138C74.8663 6.1865 74.536 6.12256 74.203 6.1258C73.953 6.09381 73.6989 6.12048 73.461 6.20372C73.2231 6.28696 73.0078 6.42447 72.8323 6.60535C72.6567 6.78623 72.5257 7.00552 72.4497 7.24582C72.3736 7.48613 72.3545 7.74085 72.394 7.9898V13.7828C72.3942 13.8206 72.3867 13.8581 72.3719 13.893C72.3571 13.9278 72.3354 13.9593 72.3081 13.9855C72.2808 14.0117 72.2484 14.032 72.213 14.0453C72.1776 14.0586 72.1398 14.0646 72.102 14.0628L70.124 14.0618ZM62.024 14.0618C61.9863 14.0634 61.9486 14.0574 61.9133 14.044C61.878 14.0307 61.8458 14.0103 61.8186 13.9841C61.7913 13.9579 61.7697 13.9265 61.755 13.8917C61.7403 13.857 61.7328 13.8196 61.733 13.7818V7.6668C61.7719 6.55844 62.2487 5.51072 63.0589 4.75338C63.8691 3.99605 64.9465 3.59091 66.055 3.6268C66.4009 3.62677 66.7458 3.66568 67.083 3.7428C68.0542 3.91784 68.9234 4.45367 69.516 5.2428C69.5297 5.26066 69.5395 5.28119 69.5448 5.30307C69.5501 5.32496 69.5507 5.3477 69.5467 5.36985C69.5426 5.392 69.534 5.41305 69.5213 5.43164C69.5086 5.45023 69.4921 5.46596 69.473 5.4778L68.007 6.4368C67.963 6.4658 67.865 6.5158 67.798 6.4368C67.6129 6.25659 67.3938 6.11506 67.1534 6.02045C66.9131 5.92585 66.6563 5.88007 66.398 5.8858C66.1133 5.88661 65.8315 5.94356 65.5688 6.05338C65.3061 6.16319 65.0676 6.32373 64.867 6.5258C64.5442 6.81704 64.3459 7.2213 64.313 7.6548C64.313 7.6898 64.305 7.7238 64.303 7.7548C64.303 7.7698 64.303 7.7848 64.303 7.7988V7.8428C64.303 7.8648 64.303 7.8868 64.303 7.9088C64.303 7.9308 64.303 7.9528 64.303 7.9758V13.5658C64.3026 13.5897 64.2996 13.6135 64.294 13.6368V13.7768C64.2942 13.8146 64.2867 13.8521 64.2719 13.887C64.2571 13.9218 64.2354 13.9533 64.2081 13.9795C64.1808 14.0057 64.1484 14.026 64.113 14.0393C64.0776 14.0526 64.0398 14.0586 64.002 14.0568L62.024 14.0618ZM12.22 14.0558C12.1821 14.0574 12.1443 14.0513 12.1088 14.0379C12.0734 14.0244 12.0411 14.0038 12.0138 13.9774C11.9866 13.951 11.965 13.9194 11.9504 13.8843C11.9359 13.8493 11.9286 13.8117 11.929 13.7738V2.3808C11.929 2.3808 11.929 2.3728 11.929 2.3688V1.7758C11.9153 1.68414 11.9296 1.59047 11.9701 1.50712C12.0106 1.42376 12.0754 1.35462 12.156 1.3088L14.177 0.0338017C14.2006 0.0143928 14.2291 0.00179768 14.2593 -0.0026263C14.2896 -0.00705027 14.3205 -0.00313542 14.3487 0.0086964C14.3769 0.0205282 14.4013 0.0398284 14.4193 0.0645173C14.4374 0.0892062 14.4483 0.118348 14.451 0.148802V3.3228V13.7738C14.4513 13.8117 14.4439 13.8492 14.4293 13.8842C14.4146 13.9191 14.3931 13.9507 14.3659 13.9771C14.3387 14.0035 14.3064 14.024 14.271 14.0376C14.2356 14.0511 14.1979 14.0573 14.16 14.0558H12.22ZM50.451 9.4248V8.3248C50.451 5.6588 52.651 3.6948 55.546 3.6948C58.457 3.6948 60.641 5.6588 60.641 8.3248V9.4248C60.641 12.0908 58.458 14.0548 55.546 14.0548C52.655 14.0548 50.451 12.0908 50.451 9.4248ZM52.951 8.3428V9.3998C52.951 10.0894 53.2249 10.7507 53.7125 11.2383C54.2001 11.7259 54.8614 11.9998 55.551 11.9998C56.2406 11.9998 56.9019 11.7259 57.3895 11.2383C57.8771 10.7507 58.151 10.0894 58.151 9.3998V8.3428C58.151 7.65324 57.8771 6.99192 57.3895 6.50432C56.9019 6.01673 56.2406 5.7428 55.551 5.7428C54.8614 5.7428 54.2001 6.01673 53.7125 6.50432C53.2249 6.99192 52.951 7.65324 52.951 8.3428ZM35.582 12.5808C35.514 12.4808 35.503 12.3618 35.682 12.2478L36.882 11.4478C37.138 11.2638 37.268 11.3158 37.348 11.3938C37.5899 11.6211 37.8776 11.7942 38.1919 11.9013C38.5061 12.0084 38.8396 12.0471 39.17 12.0148C40.27 12.0148 40.687 11.4738 40.687 10.9328V10.8718C40.687 10.1508 40.147 9.9108 38.878 9.6288C37.178 9.2878 35.738 8.6858 35.738 6.7628V6.6828C35.738 4.9598 37.298 3.7158 39.338 3.7158C40.3037 3.68384 41.2502 3.99014 42.014 4.5818C42.03 4.5928 42.208 4.7398 42.221 4.7528L42.667 5.1848C42.6806 5.20264 42.6904 5.22315 42.6956 5.24499C42.7008 5.26684 42.7013 5.28954 42.6972 5.31161C42.693 5.33369 42.6843 5.35464 42.6715 5.37311C42.6587 5.39157 42.6422 5.40714 42.623 5.4188L41.143 6.3938C41.099 6.4228 41.002 6.4728 40.934 6.3938C40.8433 6.30769 40.7475 6.22721 40.647 6.1528C40.2887 5.91723 39.8707 5.78854 39.442 5.7818C38.672 5.7818 38.257 6.2228 38.257 6.6818V6.7618C38.257 7.4428 38.818 7.6618 40.024 7.9048C41.646 8.2248 43.184 8.7258 43.184 10.7708V10.8508C43.184 12.5948 41.791 14.0588 39.275 14.0588C37.9075 14.0204 36.5984 13.4965 35.582 12.5808ZM19.967 14.0548H19.944C17.584 14.0408 15.649 12.9658 15.504 10.1458C15.5014 10.136 15.4997 10.1259 15.499 10.1158V9.9798C15.499 9.9198 15.499 9.8608 15.499 9.7998C15.499 9.7998 15.499 9.7818 15.499 9.7638V4.0508C15.4986 4.01284 15.5059 3.97518 15.5204 3.94012C15.535 3.90506 15.5566 3.87333 15.5838 3.84685C15.611 3.82038 15.6433 3.79973 15.6788 3.78614C15.7142 3.77255 15.7521 3.76631 15.79 3.7678H17.745C17.7844 3.76435 17.824 3.76908 17.8614 3.78171C17.8989 3.79434 17.9333 3.81459 17.9625 3.84118C17.9917 3.86776 18.0151 3.90012 18.0312 3.9362C18.0473 3.97228 18.0557 4.0113 18.056 4.0508V9.3798C18.056 10.6398 18.672 11.7038 19.962 11.7158C21.252 11.7028 21.868 10.6388 21.868 9.3798V4.0508C21.8683 4.0112 21.8767 3.97209 21.8929 3.93594C21.909 3.89979 21.9325 3.86738 21.9618 3.84078C21.9912 3.81418 22.0257 3.79395 22.0633 3.78139C22.1008 3.76883 22.1406 3.7642 22.18 3.7678H24.135C24.1729 3.76631 24.2108 3.77255 24.2462 3.78614C24.2817 3.79973 24.314 3.82038 24.3412 3.84685C24.3685 3.87333 24.39 3.90506 24.4046 3.94012C24.4191 3.97518 24.4264 4.01284 24.426 4.0508V9.7638C24.426 9.7818 24.426 9.7968 24.426 9.7998C24.426 9.8608 24.426 9.9198 24.426 9.9798V10.1148C24.425 10.1249 24.4234 10.1349 24.421 10.1448C24.276 12.9658 22.342 14.0448 19.981 14.0538H19.958L19.967 14.0548ZM45.067 11.3778V5.7448C45.0681 5.71747 45.0634 5.69022 45.0531 5.66486C45.0429 5.63949 45.0274 5.6166 45.0076 5.59768C44.9878 5.57877 44.9643 5.56428 44.9385 5.55516C44.9127 5.54604 44.8853 5.54251 44.858 5.5448H43.777C43.699 5.54246 43.625 5.50982 43.5707 5.45381C43.5163 5.3978 43.486 5.32283 43.486 5.2448V4.2448C43.4858 4.20705 43.4933 4.16965 43.508 4.13488C43.5227 4.1001 43.5443 4.06868 43.5716 4.0425C43.5988 4.01632 43.631 3.99594 43.6663 3.98258C43.7016 3.96923 43.7393 3.96318 43.777 3.9648H44.858C44.8853 3.96709 44.9127 3.96356 44.9385 3.95444C44.9643 3.94533 44.9878 3.93083 45.0076 3.91192C45.0274 3.89301 45.0429 3.87011 45.0531 3.84475C45.0634 3.81938 45.0681 3.79213 45.067 3.7648V3.3448V1.7758C45.0533 1.68414 45.0676 1.59047 45.1081 1.50712C45.1486 1.42376 45.2134 1.35462 45.294 1.3088L47.309 0.0338017C47.3326 0.0143928 47.3611 0.00179768 47.3913 -0.0026263C47.4216 -0.00705027 47.4525 -0.00313542 47.4807 0.0086964C47.5089 0.0205282 47.5333 0.0398284 47.5513 0.0645173C47.5694 0.0892062 47.5803 0.118348 47.583 0.148802V2.3808C47.583 2.3808 47.583 2.3808 47.583 2.3888V3.7658C47.583 3.8868 47.666 3.9658 47.812 3.9658H50.012C50.0497 3.96418 50.0874 3.97023 50.1227 3.98358C50.158 3.99694 50.1902 4.01732 50.2174 4.0435C50.2447 4.06967 50.2663 4.1011 50.281 4.13588C50.2957 4.17065 50.3032 4.20805 50.303 4.2458V5.2458C50.303 5.32383 50.2727 5.3988 50.2183 5.45481C50.164 5.51082 50.09 5.54346 50.012 5.5458H47.812C47.666 5.5458 47.583 5.6258 47.583 5.7458V11.0778C47.5887 11.2111 47.6218 11.3418 47.6803 11.4617C47.7388 11.5816 47.8214 11.6882 47.923 11.7747C48.0245 11.8612 48.1428 11.9259 48.2705 11.9646C48.3982 12.0034 48.5325 12.0153 48.665 11.9998C49.0395 12.0013 49.4068 11.8974 49.725 11.6998C49.797 11.6646 49.8795 11.6575 49.9564 11.6799C50.0333 11.7023 50.0991 11.7525 50.141 11.8208L50.868 13.0028C50.8923 13.0374 50.9085 13.077 50.9153 13.1187C50.9221 13.1604 50.9194 13.203 50.9074 13.2435C50.8953 13.284 50.8743 13.3213 50.8458 13.3525C50.8174 13.3837 50.7822 13.4081 50.743 13.4238C49.9499 13.8262 49.0743 14.0391 48.185 14.0458C46.127 14.0498 45.067 13.1208 45.067 11.3778Z" fill="white"/>
</svg>
