<?xml version="1.0" encoding="UTF-8"?>
<svg xmlns="http://www.w3.org/2000/svg" xmlns:xlink="http://www.w3.org/1999/xlink" width="245px" height="300px" viewBox="0 0 89.229 109.53">
  <defs>
    <style>
      .logo-1 {
        fill: none;
      }

      .logo-2 {
        fill: #36a9dd;
      }

      .logo-3 {
        clip-path: url(#clip-path);
      }

      .logo-4 {
        opacity: 0.202;
      }

      .logo-5 {
        opacity: 0.196;
      }
    </style>
    <clipPath id="clip-path">
      <path id="Path_5" data-name="Path 5" class="logo-1" d="M2449.71,528.625V524.8h0V511.776a1.049,1.049,0,0,0-1.715-.746l-12.653,8.281a3.025,3.025,0,0,0-1.423,3.037v6.039c0,.46.025.628-.094.677-.236.1-.732-.223-.935-.376a15.03,15.03,0,0,1,8.873-27.078h.121c4.771,0,7.9,1.371,10.894,4.8h0a1.131,1.131,0,0,0,1.616.337l9.721-6.6a1.13,1.13,0,0,0,.29-1.618h0c-5.306-7.213-12.942-10.958-22.524-10.958h-.233a29.076,29.076,0,0,0-8.2,56.9c.283.087.478.068.477.365l-.043,14.607c.036,2.532.132,4.4.338,6.614a.679.679,0,0,1,.019.107,33.6,33.6,0,0,0,9.414,20.86,34.169,34.169,0,1,0,48.457-48.188c-6.673-6.721-15.939-10.145-27.536-10.175Zm30.606,46.547a17.739,17.739,0,0,1-30.337-10.966c0-.021-.006-.042-.008-.062-.109-1.133-.159-2.091-.176-3.418l.044-14.606v-.037a1.776,1.776,0,0,1,1.735-1.671h.011l14.434.039c6.025.017,10.86,1.815,14.367,5.343A17.969,17.969,0,0,1,2480.316,575.172Z" transform="translate(-2412.811 -487.572)"></path>
    </clipPath>
  </defs>
  <g id="bs" transform="translate(-2412.81 -487.572)">
    <path id="Path_1" data-name="Path 1" class="logo-1" d="M2528.53,637.738a30.408,30.408,0,0,1-52-18.8c-.006-.036-.01-.072-.013-.107-.186-1.942-.272-3.585-.3-5.859l.076-25.038v-.063a3.044,3.044,0,0,1,2.974-2.865h.019l24.742.067c10.328.029,18.616,3.111,24.628,9.159A30.8,30.8,0,0,1,2528.53,637.738Z" transform="translate(-44.117 -60.458)"></path>
    <path id="Path_2" data-name="Path 2" class="logo-2" d="M2449.71,528.625V524.8h0V511.776a1.049,1.049,0,0,0-1.715-.746l-12.653,8.281a3.025,3.025,0,0,0-1.423,3.037v6.039c0,.46.025.628-.094.677-.236.1-.732-.223-.935-.376a15.03,15.03,0,0,1,8.873-27.078h.121c4.771,0,7.9,1.371,10.894,4.8h0a1.131,1.131,0,0,0,1.616.337l9.721-6.6a1.13,1.13,0,0,0,.29-1.618h0c-5.306-7.213-12.942-10.958-22.524-10.958h-.233a29.076,29.076,0,0,0-8.2,56.9c.283.087.478.068.477.365l-.043,14.607c.036,2.532.132,4.4.338,6.614a.679.679,0,0,1,.019.107,33.6,33.6,0,0,0,9.414,20.86,34.169,34.169,0,1,0,48.457-48.188c-6.673-6.721-15.939-10.145-27.536-10.175l-3.448-.009Zm30.606,46.547a17.739,17.739,0,0,1-30.337-10.966c0-.021-.006-.042-.008-.062-.109-1.133-.159-2.091-.176-3.418l.044-14.606v-.037a1.776,1.776,0,0,1,1.735-1.671h.011l14.434.039c6.025.017,10.86,1.815,14.367,5.343A17.969,17.969,0,0,1,2480.316,575.172Z" transform="translate(0 0)"></path>
    <g id="Group_2" data-name="Group 2" transform="translate(2412.81 487.572)">
      <g id="Group_1" data-name="Group 1" class="logo-3">
        <path id="Path_3" data-name="Path 3" class="logo-4" d="M2444.926,574.314l.011-16.069-5.691,26.772Z" transform="translate(-2423.825 -517.017)"></path>
        <path id="Path_4" data-name="Path 4" class="logo-5" d="M2476.095,556.2l.139,17.406,5.272-19.47Z" transform="translate(-2439.177 -515.304)"></path>
      </g>
    </g>
  </g>
</svg>
