<?xml version="1.0" encoding="UTF-8"?>
<svg xmlns="http://www.w3.org/2000/svg" width="300px" height="49px" viewBox="0 0 85 14.103">
  <defs>
    <style>
      .cls-1 {
        fill: #009ddb;
      }
    </style>
  </defs>
  <path id="bluestorm" class="cls-1" d="M1.559,12.553a5.089,5.089,0,0,1-1.5-3.21c0-.005,0-.011,0-.016C.02,8.986.005,8.7,0,8.309L.007,6.1V1.776a.458.458,0,0,1,.228-.467L2.253.034a.168.168,0,0,1,.273.115V3.323a.277.277,0,0,0,.263.244H2.8l1.349,0H4.9a6.091,6.091,0,0,1,4.4,1.566,5.13,5.13,0,0,1-.021,7.434A5.527,5.527,0,0,1,5.428,14.1,5.524,5.524,0,0,1,1.559,12.553Zm.987-6.3v.005L2.539,8.506c0,.2.011.351.028.526,0,0,0,.007,0,.01a2.678,2.678,0,0,0,.79,1.677,2.942,2.942,0,0,0,4.052.01,2.694,2.694,0,0,0,.01-3.9A3.178,3.178,0,0,0,5.129,6L2.825,6h0A.28.28,0,0,0,2.546,6.253Zm22.942,3.2V8.394a4.515,4.515,0,0,1,4.84-4.618,4.459,4.459,0,0,1,4.757,4.618V9.33a.3.3,0,0,1-.312.3H28.189a.169.169,0,0,0-.187.2,2.482,2.482,0,0,0,2.721,2.229,2.809,2.809,0,0,0,1.807-.637.293.293,0,0,1,.374,0l1.413.893a.275.275,0,0,1,.021.437,5.617,5.617,0,0,1-3.615,1.317C27.732,14.067,25.488,12.116,25.488,9.449ZM28,7.837c-.021.14.1.219.229.219h4.113a.188.188,0,0,0,.208-.219,2.082,2.082,0,0,0-2.2-2.049A2.16,2.16,0,0,0,28,7.837Zm42.124,6.225a.279.279,0,0,1-.292-.28V7.89c0-1.866.764-3.159,2.123-3.668a5.625,5.625,0,0,1,4.118-.113,3.527,3.527,0,0,1,1.917,1.471.136.136,0,0,0,.25,0,3.725,3.725,0,0,1,3.2-1.624C83.69,3.956,85,5.419,85,7.865v5.892a.279.279,0,0,1-.291.281H82.734a.279.279,0,0,1-.291-.281V7.965A1.623,1.623,0,0,0,80.633,6.1a2.22,2.22,0,0,0-1.85.882.859.859,0,0,0-.27.582v6.193a.279.279,0,0,1-.291.281H76.266a.293.293,0,0,1-.292-.281V7.965a1.682,1.682,0,0,0-.8-1.651,2.477,2.477,0,0,0-.971-.188,1.623,1.623,0,0,0-1.809,1.864v5.793a.279.279,0,0,1-.292.28Zm-8.1,0a.279.279,0,0,1-.291-.28l0-6.115a4.189,4.189,0,0,1,4.322-4.04,4.609,4.609,0,0,1,1.028.116,3.91,3.91,0,0,1,2.433,1.5h0a.161.161,0,0,1-.043.235l-1.466.959c-.044.029-.142.079-.209,0a1.945,1.945,0,0,0-1.4-.551,2.166,2.166,0,0,0-1.531.64,1.693,1.693,0,0,0-.554,1.129c0,.035-.008.069-.01.1,0,.015,0,.03,0,.044v.044c0,.022,0,.044,0,.066s0,.044,0,.067v5.59a.329.329,0,0,1-.009.071v.14a.279.279,0,0,1-.292.28ZM12.22,14.056a.279.279,0,0,1-.291-.282V2.381s0-.008,0-.012V1.776a.459.459,0,0,1,.227-.467L14.177.034a.168.168,0,0,1,.274.115V3.323h0V13.774a.28.28,0,0,1-.291.282ZM50.451,9.425v-1.1c0-2.666,2.2-4.63,5.095-4.63,2.911,0,5.095,1.964,5.095,4.63v1.1c0,2.666-2.183,4.63-5.095,4.63C52.655,14.055,50.451,12.091,50.451,9.425Zm2.5-1.082V9.4a2.6,2.6,0,1,0,5.2,0V8.343a2.6,2.6,0,1,0-5.2,0ZM35.582,12.581c-.068-.1-.079-.219.1-.333l1.2-.8c.256-.184.386-.132.466-.054a2.33,2.33,0,0,0,1.822.621c1.1,0,1.517-.541,1.517-1.082v-.061c0-.721-.54-.961-1.809-1.243-1.7-.341-3.14-.943-3.14-2.866v-.08c0-1.723,1.56-2.967,3.6-2.967a4.146,4.146,0,0,1,2.676.866c.016.011.194.158.207.171l.446.432a.16.16,0,0,1-.044.234l-1.48.975c-.044.029-.141.079-.209,0a3.065,3.065,0,0,0-.287-.241,2.258,2.258,0,0,0-1.205-.371c-.77,0-1.185.441-1.185.9v.08c0,.681.561.9,1.767,1.143,1.622.32,3.16.821,3.16,2.866v.08c0,1.744-1.393,3.208-3.909,3.208A5.759,5.759,0,0,1,35.582,12.581ZM19.967,14.055h-.023c-2.36-.014-4.295-1.089-4.44-3.909a.164.164,0,0,1-.005-.03V9.98c0-.06,0-.119,0-.18,0,0,0-.018,0-.036V4.051a.28.28,0,0,1,.291-.283h1.955a.286.286,0,0,1,.311.283V9.38s0,0,0,0c0,1.26.616,2.324,1.906,2.336,1.29-.013,1.906-1.077,1.906-2.336,0,0,0,0,0,0V4.051a.286.286,0,0,1,.312-.283h1.955a.28.28,0,0,1,.291.283V9.764c0,.018,0,.033,0,.036,0,.061,0,.12,0,.18v.135a.216.216,0,0,1-.005.03c-.145,2.821-2.079,3.9-4.44,3.909h-.023Zm25.1-2.677V5.745a.193.193,0,0,0-.209-.2H43.777a.3.3,0,0,1-.291-.3v-1a.279.279,0,0,1,.291-.28h1.081a.193.193,0,0,0,.209-.2v-.42h0V1.776a.459.459,0,0,1,.227-.467L47.309.034a.168.168,0,0,1,.274.115V2.381s0,0,0,.008V3.766c0,.121.083.2.229.2h2.2a.279.279,0,0,1,.291.28v1a.3.3,0,0,1-.291.3h-2.2c-.146,0-.229.08-.229.2v5.332A.97.97,0,0,0,48.665,12a1.994,1.994,0,0,0,1.06-.3.322.322,0,0,1,.416.121l.727,1.182a.28.28,0,0,1-.125.421,5.75,5.75,0,0,1-2.558.622C46.127,14.05,45.066,13.121,45.066,11.378Z"></path>
</svg>
